Coordinates
version=1
nRows=16
nColumns=33
inDegrees=yes

Units are S.I. units (second, meters, Newtons, ...)
Angles are in degrees.

endheader
time	ground_thorax_rot_x	ground_thorax_rot_y	ground_thorax_rot_z	ground_thorax_tx	ground_thorax_ty	ground_thorax_tz	clav_prot_r	clav_elev_r	scapula_abduction_r	scapula_elevation_r	scapula_upward_rot_r	scapula_winging_r	shoulder_elv_r	plane_of_elev_r	axial_rot_r	elbow_flexion_r	pro_sup_r	wrist_flex_r	wrist_dev_r	clav_prot_l	clav_elev_l	scapula_abduction_l	scapula_elevation_l	scapula_upward_rot_l	scapula_winging_l	shoulder_elv_l	plane_of_elev_l	axial_rot_l	elbow_flexion_l	pro_sup_l	wrist_flex_l	wrist_dev_l
      2.84000000	     24.28024741	     42.80996543	      0.60645482	      0.00485548	      1.00230012	     -0.04252920	    -19.25097461	     29.50252145	    -15.07036540	     20.83816112	     45.00000000	    -11.67927768	     -3.85740320	    -90.00000000	     13.12809135	     78.74909204	    -16.90834175	     27.85563484	     -5.00957432	     23.64934372	    -25.29534388	    -45.00000000	     -1.90112807	    -45.00000000	     12.50814382	     68.48818408	      3.04206933	    -19.34073479	     67.00915030	      1.71535092	     33.13388986	     -4.92105811
      2.85000000	     24.21869767	     42.82687322	      0.73659328	      0.00503373	      1.00261160	     -0.04297567	    -19.08554419	     29.29533268	    -14.47839835	     20.67712954	     45.00000000	    -11.70119889	     -3.81068587	    -90.00000000	     13.08325760	     78.28357055	    -17.12622899	     27.66915299	     -4.97949174	     23.72791669	    -25.74242510	    -45.00000000	     -1.53555820	    -44.97580732	     12.27152132	     68.45708289	      3.21379306	    -19.27553717	     66.20016302	      1.81939519	     33.04134246	     -4.70460368
      2.86000000	     24.22723990	     42.69926618	      0.68577302	      0.00529588	      1.00296082	     -0.04346509	    -18.93951478	     28.97256943	    -13.79902334	     20.41427614	     45.00000000	    -11.76636855	     -3.64444097	    -90.00000000	     12.92102750	     77.93956651	    -17.96749889	     27.24833018	     -4.67559450	     23.79344495	    -26.14662495	    -45.00000000	     -1.22071442	    -45.00000000	     12.05012820	     68.22879785	      3.55117589	    -18.64526912	     65.21999920	      1.64940244	     33.30628123	     -4.52211650
      2.87000000	     24.19319752	     42.70017818	      0.62596987	      0.00546849	      1.00291826	     -0.04383667	    -18.81864619	     28.70995833	    -13.25073822	     20.20089299	     45.00000000	    -11.81977055	     -3.58754991	    -90.00000000	     12.86972636	     77.86085714	    -19.97608317	     26.50850491	     -3.81706698	     23.84867237	    -26.41314596	    -45.00000000	     -0.98703114	    -44.94274527	     11.90096577	     68.00617108	      4.19732741	    -18.05171031	     63.90448325	      1.17715612	     34.39487694	     -4.26599645
      2.88000000	     24.01986956	     42.66375406	      0.67038462	      0.00562791	      1.00283026	     -0.04454572	    -18.63558178	     28.39306817	    -12.51581061	     19.94638176	     45.00000000	    -11.87139306	     -3.74287319	    -90.00000000	     13.03049797	     77.52892486	    -23.61444675	     26.25643883	     -2.88832547	     23.87120437	    -26.59470126	    -45.00000000	     -0.86187856	    -45.00000000	     11.80163754	     68.00620462	      4.80465731	    -17.88963743	     62.89074494	      0.75782866	     34.77406189	     -3.87980640
      2.89000000	     23.98735717	     42.72902345	      0.83990628	      0.00589322	      1.00281424	     -0.04491908	    -18.48700571	     28.26241143	    -12.05983877	     19.84930169	     45.00000000	    -11.88103372	     -3.69265584	    -90.00000000	     12.98995084	     77.10649178	    -23.74282390	     26.07301392	     -2.90104969	     23.94835331	    -26.99872993	    -45.00000000	     -0.52304900	    -44.96103668	     11.57346243	     68.05213721	      4.93672565	    -18.14700597	     62.13109233	      0.90073043	     34.76871365	     -3.66131237
      2.90000000	     23.94941666	     42.77671600	      0.87571638	      0.00614472	      1.00280799	     -0.04541933	    -18.32334393	     28.12986509	    -11.57240816	     19.75104772	     45.00000000	    -11.88694973	     -3.68602198	    -89.83131255	     13.01505837	     76.52016945	    -23.98040953	     25.74675931	     -2.83725489	     24.03569268	    -27.38659472	    -45.00000000	     -0.17034973	    -44.84641171	     11.35294768	     68.08036367	      5.05477662	    -18.24313724	     61.35942475	      0.95028742	     34.76935382	     -3.49406631
      2.91000000	     24.08062367	     42.79793541	      0.88326541	      0.00638101	      1.00263016	     -0.04571699	    -18.18700409	     28.29168059	    -11.45367026	     19.90276617	     45.00000000	    -11.80607276	     -2.36381287	    -89.28998677	     14.28173277	     76.33206819	    -28.39677797	     24.80253760	     -1.40060369	     24.17584885	    -27.81066570	    -45.00000000	      0.32021403	    -44.42718225	     11.11261488	     67.75625690	      4.92529368	    -18.62660908	     60.33595511	     -0.63913843	     34.83701783	     -3.08626240
      2.92000000	     25.33922514	     46.22043746	     -4.47394262	      0.01540718	      1.01472066	     -0.05160299	    -30.40357771	     15.73477388	    -23.96777855	      8.47250199	     45.00000000	    -17.97027540	     93.80022427	    -67.79436948	    112.98350945	     81.79045502	    -29.10803285	     24.14628574	     -2.95006841	     25.47839428	    -30.77604664	    -45.00000000	      4.90903135	    -38.48404197	      9.09134006	     68.60224034	      0.45288375	    -22.19485888	     60.13698601	     -3.40405792	     33.44589434	     -0.20029634
      2.93000000	     25.53012764	     46.19234636	     -4.45213666	      0.01554674	      1.01434319	     -0.05195525	    -30.11145750	     15.90892325	    -23.59445501	      8.63742854	     45.00000000	    -17.83073792	     93.09789050	    -67.90276042	    112.18856258	     81.67599350	    -30.34712274	     23.03443960	     -3.09657415	     25.52102129	    -31.10515624	    -45.00000000	      5.08835359	    -38.74367779	      8.85829721	     68.41393764	      1.17953379	    -21.79407758	     58.43238381	     -3.11414603	     34.51476702	     -1.64356670
      2.94000000	     25.42565499	     46.10028824	     -4.23772407	      0.01590485	      1.01456905	     -0.05230501	    -29.94446743	     15.62442314	    -23.15395212	      8.43190219	     45.00000000	    -17.72954692	     92.91414160	    -67.71939208	    112.06756480	     81.27057610	    -30.45026502	     22.88367453	     -3.09800858	     25.60021544	    -31.50217949	    -45.00000000	      5.41064822	    -38.77329525	      8.56155481	     68.33394700	      1.27741770	    -21.83902451	     57.43300680	     -2.89013435	     34.51264501	     -1.38663478
      2.95000000	     25.09251571	     45.94003990	     -4.06399515	      0.01605638	      1.01428651	     -0.05270711	    -29.74490150	     15.91436574	    -22.99695579	      8.67808838	     45.00000000	    -17.64400977	     89.34545161	    -67.89414104	    109.16163954	     80.34107476	    -33.58320441	     22.37714171	     -2.32239485	     25.55069356	    -31.15134649	    -45.00000000	      5.20515827	    -38.53333809	      8.81577363	     66.88570415	      2.69076489	    -20.20075416	     55.39229214	     -1.32747726	     36.62195970	     -1.85924322
      2.96000000	     25.29180934	     45.85317402	     -4.38308266	      0.01633790	      1.01430909	     -0.05318140	    -29.53564475	     15.76754937	    -22.56484603	      8.58438401	     45.00000000	    -17.53609241	     88.34208739	    -67.92431244	    108.03859895	     79.83826194	    -34.29687090	     22.09964577	     -2.21538140	     25.65299048	    -31.51542892	    -45.00000000	      5.61739543	    -38.24287476	      8.52622390	     66.20085678	      3.32866297	    -19.28282291	     53.54544947	     -0.85251755	     37.66900568	     -1.96867079
      2.97000000	     25.24109890	     45.73841286	     -4.40802515	      0.01661029	      1.01415217	     -0.05341069	    -29.36245084	     15.77377952	    -22.28435014	      8.60575652	     45.00000000	    -17.44411874	     86.50842653	    -67.96627833	    106.32877804	     79.24032692	    -35.55500669	     21.64667035	     -1.92196979	     25.68495641	    -31.54790403	    -45.00000000	      5.75009720	    -37.96325915	      8.49281115	     65.23929753	      4.30036934	    -18.17778777	     51.60438714	      0.01118281	     39.18293346	     -2.11133080
      2.98000000	     25.11716566	     45.56328609	     -4.36007550	      0.01680544	      1.01393692	     -0.05368497	    -29.14738782	     15.90783225	    -22.00635577	      8.73163503	     45.00000000	    -17.34600890	     83.98174913	    -67.95002314	    104.15176218	     78.48317249	    -37.10251878	     21.30571677	     -1.65485934	     25.70728329	    -31.60381670	    -45.00000000	      5.84175746	    -37.84450226	      8.44340786	     64.53992490	      5.16185257	    -17.20222489	     49.80896483	      1.05823897	     40.15827648	     -2.61053876
      2.99000000	     24.93062865	     45.39136482	     -4.20766308	      0.01699885	      1.01384063	     -0.05385171	    -28.93946300	     16.09989364	    -21.77523543	      8.90277350	     45.00000000	    -17.25423988	     81.23362124	    -67.89013276	    101.82052665	     77.65627066	    -38.56544362	     20.89689548	     -1.39578383	     25.74481901	    -31.80866507	    -45.00000000	      5.99203375	    -37.90495722	      8.28997238	     64.34924043	      5.63059104	    -16.59400020	     48.45783111	      1.91248279	     40.66813397	     -3.05593168
